<mxfile host="app.diagrams.net" modified="2024-04-28T10:43:05.026Z" agent="Mozilla/5.0 (Macintosh; Intel Mac OS X 10.15; rv:125.0) Gecko/20100101 Firefox/125.0" etag="De73hTlU8k9yZ8TELbeE" version="24.3.1" type="github">
  <diagram name="Page-1" id="dRIZX-WYXm1MwRrxzt3O">
    <mxGraphModel dx="1834" dy="1121" grid="0" gridSize="10" guides="1" tooltips="1" connect="1" arrows="1" fold="1" page="0" pageScale="1" pageWidth="827" pageHeight="1169" math="1" shadow="0">
      <root>
        <mxCell id="0" />
        <mxCell id="1" parent="0" />
        <mxCell id="Zmz00HLLu2kWFhQaTacG-1" value="" style="whiteSpace=wrap;html=1;aspect=fixed;strokeColor=#0066CC;" vertex="1" parent="1">
          <mxGeometry x="-86" y="17" width="80" height="80" as="geometry" />
        </mxCell>
        <mxCell id="Zmz00HLLu2kWFhQaTacG-3" value="" style="whiteSpace=wrap;html=1;aspect=fixed;strokeColor=#0066CC;" vertex="1" parent="1">
          <mxGeometry x="298" y="17" width="80" height="80" as="geometry" />
        </mxCell>
        <mxCell id="Zmz00HLLu2kWFhQaTacG-4" value="" style="whiteSpace=wrap;html=1;aspect=fixed;strokeColor=#FF3333;" vertex="1" parent="1">
          <mxGeometry x="56" y="77" width="80" height="80" as="geometry" />
        </mxCell>
        <mxCell id="Zmz00HLLu2kWFhQaTacG-5" value="" style="whiteSpace=wrap;html=1;aspect=fixed;strokeColor=#FF3333;" vertex="1" parent="1">
          <mxGeometry x="56" y="231" width="80" height="80" as="geometry" />
        </mxCell>
        <mxCell id="Zmz00HLLu2kWFhQaTacG-11" value="" style="endArrow=classic;html=1;rounded=0;" edge="1" parent="1">
          <mxGeometry width="50" height="50" relative="1" as="geometry">
            <mxPoint x="296" y="27" as="sourcePoint" />
            <mxPoint x="-6" y="27" as="targetPoint" />
          </mxGeometry>
        </mxCell>
        <mxCell id="Zmz00HLLu2kWFhQaTacG-12" value="" style="endArrow=none;html=1;rounded=0;" edge="1" parent="1">
          <mxGeometry width="50" height="50" relative="1" as="geometry">
            <mxPoint x="-6" y="88" as="sourcePoint" />
            <mxPoint x="54" y="88" as="targetPoint" />
          </mxGeometry>
        </mxCell>
        <mxCell id="Zmz00HLLu2kWFhQaTacG-13" value="" style="endArrow=classic;html=1;rounded=0;entryX=0;entryY=0.888;entryDx=0;entryDy=0;entryPerimeter=0;" edge="1" parent="1" target="Zmz00HLLu2kWFhQaTacG-3">
          <mxGeometry width="50" height="50" relative="1" as="geometry">
            <mxPoint x="136" y="88" as="sourcePoint" />
            <mxPoint x="186" y="38" as="targetPoint" />
          </mxGeometry>
        </mxCell>
        <mxCell id="Zmz00HLLu2kWFhQaTacG-15" value="" style="endArrow=classic;html=1;rounded=0;" edge="1" parent="1">
          <mxGeometry width="50" height="50" relative="1" as="geometry">
            <mxPoint x="84" y="228" as="sourcePoint" />
            <mxPoint x="84" y="157" as="targetPoint" />
          </mxGeometry>
        </mxCell>
        <mxCell id="Zmz00HLLu2kWFhQaTacG-16" value="" style="endArrow=classic;html=1;rounded=0;exitX=0.75;exitY=1;exitDx=0;exitDy=0;entryX=0.75;entryY=0;entryDx=0;entryDy=0;" edge="1" parent="1" source="Zmz00HLLu2kWFhQaTacG-4" target="Zmz00HLLu2kWFhQaTacG-5">
          <mxGeometry width="50" height="50" relative="1" as="geometry">
            <mxPoint x="175" y="225" as="sourcePoint" />
            <mxPoint x="225" y="175" as="targetPoint" />
          </mxGeometry>
        </mxCell>
        <mxCell id="Zmz00HLLu2kWFhQaTacG-17" value="&lt;font color=&quot;#0066cc&quot; style=&quot;font-size: 20px;&quot;&gt;r&lt;/font&gt;" style="text;html=1;align=center;verticalAlign=middle;whiteSpace=wrap;rounded=0;" vertex="1" parent="1">
          <mxGeometry x="-76" y="42" width="60" height="30" as="geometry" />
        </mxCell>
        <mxCell id="Zmz00HLLu2kWFhQaTacG-18" value="&lt;font style=&quot;font-size: 20px;&quot; color=&quot;#0066cc&quot;&gt;1-r&lt;/font&gt;" style="text;html=1;align=center;verticalAlign=middle;whiteSpace=wrap;rounded=0;" vertex="1" parent="1">
          <mxGeometry x="308" y="42" width="60" height="30" as="geometry" />
        </mxCell>
        <mxCell id="Zmz00HLLu2kWFhQaTacG-19" value="&lt;font style=&quot;font-size: 20px;&quot; color=&quot;#ff3333&quot;&gt;u&lt;/font&gt;" style="text;html=1;align=center;verticalAlign=middle;whiteSpace=wrap;rounded=0;" vertex="1" parent="1">
          <mxGeometry x="69" y="102" width="60" height="30" as="geometry" />
        </mxCell>
        <mxCell id="Zmz00HLLu2kWFhQaTacG-20" value="&lt;font style=&quot;font-size: 20px;&quot; color=&quot;#ff3333&quot;&gt;1-u&lt;/font&gt;" style="text;html=1;align=center;verticalAlign=middle;whiteSpace=wrap;rounded=0;" vertex="1" parent="1">
          <mxGeometry x="66" y="253" width="60" height="30" as="geometry" />
        </mxCell>
        <mxCell id="Zmz00HLLu2kWFhQaTacG-21" value="&lt;font color=&quot;#ff3333&quot; style=&quot;font-size: 20px;&quot;&gt;U&lt;/font&gt;" style="text;html=1;align=center;verticalAlign=middle;whiteSpace=wrap;rounded=0;" vertex="1" parent="1">
          <mxGeometry x="22" y="182" width="60" height="30" as="geometry" />
        </mxCell>
        <mxCell id="Zmz00HLLu2kWFhQaTacG-22" value="&lt;font color=&quot;#0066cc&quot; style=&quot;font-size: 20px;&quot;&gt;$$\tau_d$$&lt;/font&gt;" style="text;html=1;align=center;verticalAlign=middle;whiteSpace=wrap;rounded=0;" vertex="1" parent="1">
          <mxGeometry x="105" y="-7" width="60" height="30" as="geometry" />
        </mxCell>
        <mxCell id="Zmz00HLLu2kWFhQaTacG-23" value="&lt;font style=&quot;font-size: 20px;&quot; color=&quot;#ff3333&quot;&gt;$$\tau_f$$&lt;/font&gt;" style="text;html=1;align=center;verticalAlign=middle;whiteSpace=wrap;rounded=0;" vertex="1" parent="1">
          <mxGeometry x="113" y="176" width="60" height="30" as="geometry" />
        </mxCell>
      </root>
    </mxGraphModel>
  </diagram>
</mxfile>
